<?xml version="1.0" encoding="utf-8"?>
<!-- Generator: Adobe Illustrator 19.0.0, SVG Export Plug-In . SVG Version: 6.00 Build 0)  -->
<svg version="1.1" id="Capa_1" xmlns="http://www.w3.org/2000/svg" xmlns:xlink="http://www.w3.org/1999/xlink" x="0px" y="0px"
	 viewBox="52 70.9 700 700" style="enable-background:new 52 70.9 700 700;" xml:space="preserve">
<style type="text/css">
	.st0{fill:#FFFFFF;}
</style>
<g>
	<path class="st0" d="M1,115.9c233.3,0,466.7,0,700,0 M199.5,462c-3.1-2.7-6.2-5-8.8-7.7c-7-7.5-7-15.6,0.1-23.1
		c9.5-10,21.9-15,34.5-19.4c31.4-10.9,64.1-14.8,97.1-16.8c3.4-0.2,6.3-1,6.3-4.8c0-3.9-3-4.7-6.4-4.4c-9.3,0.7-18.6,1.2-27.9,2.2
		c-26.4,2.9-52.5,7.2-77.3,17.1c-10.2,4.1-20,9.8-29.1,16c-8.7,5.9-13,15.1-11.8,26c1.2,11.2,1.7,22.7,4,33.7
		c12.2,58.4,46.1,97.7,104.2,114c44.6,12.5,89.6,12.2,134.2-0.2c36.2-10.1,65.1-30.7,84.5-63.5c15.2-25.9,21.4-54.3,22.9-83.9
		c0.5-10.1-2.8-18.7-10.6-24.7c-7.2-5.5-14.9-10.7-23.2-14.5c-29.2-13.2-60.5-17.7-92.1-20.7c-1.8-0.2-5,2.1-5.7,3.9
		c-1.1,3,1.5,4.7,4.5,5.2c0.8,0.1,1.7,0.2,2.5,0.3c12.7,1.7,25.5,3.1,38.1,5.3c19.4,3.5,38.5,8.2,55.9,17.8c6.2,3.4,12,7.9,17,12.9
		c6,6,5.6,13.8,0.1,20.4c-1.8,2.2-4,4-6.1,5.9c-3.2,3-6.6,4.7-10.9,1.7c-1.4-1-3.4-1.2-5.2-1.7c-12.2-3.1-14.4-5.7-15-18.2
		c-0.6-13-6.2-20.8-18.8-23.7c-8.5-1.9-17.4-2.2-26.2-2.9c-10.8-0.9-21.6-1.2-32.4-2.4c-8.6-1-8.6-1.6-8.6-9.9
		c0-49.3,0.1-98.7,0.1-148c0-12.2,0.8-13,12.9-14.8c0.7-0.1,1.3-0.1,2-0.2c33.4-3.9,66.8-7.9,100.2-11.8c3.5-0.4,7.2-0.8,6.6-5.5
		c-0.6-4.8-4.5-4.1-7.8-3.7c-7.3,0.8-14.6,1.7-21.8,2.5c-14.9,1.7-29.8,3.5-44.7,5.2c11.1-5.1,22.3-9.5,33.6-13.9
		c10.7-4.1,21.4-8.2,32.1-12.3c3.1-1.2,4.8-3.3,3.6-6.6c-1.2-3.4-4-3.6-7-2.4c-0.8,0.3-1.6,0.6-2.3,0.9
		c-31.9,12.3-63.8,24.7-95.7,37c-3.1,1.2-6.3,2.1-9.6,2.5c-24.8,3.1-49.6,6-74.4,8.9c-3.1,0.4-5.1,1.7-5,5c0.2,3.4,2.5,4.5,5.6,4.2
		c5.1-0.5,10.3-1.1,15.4-1.7c7.7-0.9,15.4-1.8,23.1-2.6c-11.1,5.4-22.5,9.9-33.9,14.2c-3.4,1.3-5.9,3.1-4.6,6.9c1.5,4,4.7,3.3,8,2
		c5-2,10.1-3.8,15.2-5.8c0.2,1,0.3,1.3,0.3,1.7c0,45.3,0.1,90.7-0.1,136c0,1.7-1.6,3.7-3,5c-4.3,3.9-8.9,7.5-13.2,11.4
		c-2.4,2.1-3.1,5-0.4,7.4c2.7,2.5,4.9,0.9,7.3-1.2c4.7-4.1,10-7.6,14.7-11.7c1.8-1.5,3.5-4,3.7-6.2c0.5-6.1,0.2-12.3,0.2-18.5
		c0-41,0-82,0.1-123c0-1.8,0.8-4.4,2.1-5.3c2.4-1.6,5.4-2.3,8.8-3.6c0,2.5,0,4.3,0,6c0,47.5-0.1,95,0.1,142.5
		c0,4.7-0.7,8.4-4.6,11.8c-4.4,3.9-7.9,8.9-6,15.4c2,6.5,7.8,8.1,13.5,9.8c0.6,0.2,1.3,0.3,2,0.3c10.1,0.7,20.2,1.4,30.4,2
		c11.6,0.7,23.3,1.2,34.9,2.3c2.3,0.2,4.3,2.4,6.5,3.7c-1.8,2.2-3.4,4.6-5.6,6.4c-1.3,1.1-3.4,1.4-5.1,1.8c-5.7,1.4-11.5,2.2-17,4
		c-5.1,1.7-10.5,3.7-14.6,7c-7.3,5.8-7.2,13.5-0.8,20.3c0.3,0.3,0.3,0.8,0.6,1.8c-15.2,0.7-30.1,1.4-46.3,2.1
		c3.2-3.3,5.5-5.4,7.4-7.8c2-2.6,4-5.4,5.4-8.3c5.5-11.1,3.9-20.6-6-27.9c-6.3-4.7-13.6-8.8-21-11.1c-33.9-10.5-67.9-10.7-101.6,0.9
		C219.7,441.7,207,448,199.5,462z"/>
	<path d="M199.5,462c7.5-14.1,20.1-20.4,33.7-25c33.7-11.5,67.8-11.4,101.6-0.9c7.5,2.3,14.7,6.4,21,11.1c9.9,7.3,11.5,16.8,6,27.9
		c-1.5,3-3.4,5.7-5.4,8.3c-1.9,2.4-4.2,4.5-7.4,7.8c16.2-0.7,31.1-1.4,46.3-2.1c-0.3-1-0.3-1.5-0.6-1.8c-6.4-6.8-6.5-14.5,0.8-20.3
		c4.2-3.3,9.5-5.3,14.6-7c5.5-1.9,11.3-2.7,17-4c1.8-0.4,3.8-0.7,5.1-1.8c2.1-1.8,3.7-4.2,5.6-6.4c-2.2-1.3-4.2-3.5-6.5-3.7
		c-11.6-1-23.2-1.5-34.9-2.3c-10.1-0.6-20.3-1.4-30.4-2c-0.7,0-1.3-0.1-2-0.3c-5.6-1.7-11.5-3.2-13.5-9.8c-2-6.5,1.6-11.6,6-15.4
		c3.9-3.4,4.6-7.1,4.6-11.8c-0.1-47.5-0.1-95-0.1-142.5c0-1.8,0-3.6,0-6c-3.4,1.3-6.5,1.9-8.8,3.6c-1.3,0.9-2.1,3.4-2.1,5.3
		c-0.1,41-0.1,82-0.1,123c0,6.2,0.3,12.4-0.2,18.5c-0.2,2.2-2,4.7-3.7,6.2c-4.7,4.1-10,7.6-14.7,11.7c-2.4,2.1-4.6,3.7-7.3,1.2
		c-2.6-2.4-1.9-5.3,0.4-7.4c4.3-3.9,8.9-7.4,13.2-11.4c1.4-1.3,3-3.3,3-5c0.1-45.3,0.1-90.7,0.1-136c0-0.3-0.1-0.6-0.3-1.7
		c-5.1,1.9-10.2,3.8-15.2,5.8c-3.2,1.3-6.5,2-8-2c-1.4-3.8,1.2-5.7,4.6-6.9c11.4-4.3,22.8-8.8,33.9-14.2c-7.7,0.9-15.4,1.8-23.1,2.6
		c-5.1,0.6-10.3,1.2-15.4,1.7c-3.1,0.3-5.4-0.8-5.6-4.2c-0.2-3.3,1.9-4.6,5-5c24.8-2.9,49.6-5.8,74.4-8.9c3.2-0.4,6.5-1.4,9.6-2.5
		c31.9-12.3,63.8-24.6,95.7-37c0.8-0.3,1.6-0.6,2.3-0.9c3-1.2,5.8-1,7,2.4c1.2,3.2-0.4,5.4-3.6,6.6c-10.7,4.1-21.4,8.2-32.1,12.3
		c-11.3,4.4-22.5,8.7-33.6,13.9c14.9-1.7,29.8-3.5,44.7-5.2c7.3-0.9,14.5-1.8,21.8-2.5c3.3-0.4,7.2-1.1,7.8,3.7
		c0.6,4.7-3.1,5-6.6,5.5c-33.4,3.9-66.8,7.9-100.2,11.8c-0.7,0.1-1.3,0.1-2,0.2c-12.2,1.8-12.9,2.7-12.9,14.8
		c0,49.3-0.1,98.7-0.1,148c0,8.3,0.1,8.9,8.6,9.9c10.7,1.2,21.6,1.5,32.4,2.4c8.8,0.7,17.7,0.9,26.2,2.9
		c12.6,2.9,18.2,10.7,18.8,23.7c0.6,12.5,2.8,15.2,15,18.2c1.8,0.4,3.8,0.7,5.2,1.7c4.3,3,7.7,1.3,10.9-1.7c2.1-1.9,4.3-3.7,6.1-5.9
		c5.4-6.6,5.8-14.3-0.1-20.4c-4.9-5-10.8-9.5-17-12.9c-17.4-9.6-36.5-14.3-55.9-17.8c-12.6-2.3-25.4-3.6-38.1-5.3
		c-0.8-0.1-1.7-0.2-2.5-0.3c-3-0.5-5.6-2.2-4.5-5.2c0.7-1.8,3.9-4,5.7-3.9c31.6,3,62.9,7.6,92.1,20.7c8.2,3.7,16,8.9,23.2,14.5
		c7.8,6,11.1,14.5,10.6,24.7c-1.5,29.7-7.6,58.1-22.9,83.9c-19.3,32.9-48.2,53.5-84.5,63.5C374,607,329,607.3,284.4,594.8
		c-58-16.3-92-55.5-104.2-114c-2.3-11-2.9-22.4-4-33.7c-1.2-10.9,3.1-20.1,11.8-26c9.1-6.2,18.9-11.9,29.1-16
		c24.7-9.9,50.9-14.2,77.3-17.1c9.3-1,18.6-1.5,27.9-2.2c3.4-0.3,6.4,0.5,6.4,4.4c0,3.8-2.9,4.6-6.3,4.8c-33,2-65.7,5.9-97.1,16.8
		c-12.6,4.4-25,9.4-34.5,19.4c-7.1,7.5-7.1,15.6-0.1,23.1C193.3,457.1,196.4,459.3,199.5,462z M515.2,463.8
		c-5.1,3.2-9.1,6.1-13.5,8.5c-17,9.5-35.6,14.7-54.5,18.5c-60.8,12.2-121.8,12.7-182.7,1.9c-27.1-4.8-53.8-11.3-76.5-28.3
		c-0.2-0.1-0.6,0.1-1.4,0.1c0.8,4.9,1.4,9.9,2.4,14.7c10.9,53.4,41.4,89.8,94.1,105.5c45.3,13.5,91.1,13.2,136.4-0.1
		c39.4-11.6,68-36.3,84.2-74.5C509.9,495.5,513.6,480.3,515.2,463.8z M488.6,468.8c-1.5-0.7-1.9-1-2.3-1.1
		c-18.1-6.6-19.4-8.3-20.2-27.1c-0.4-7.6-3.7-12.6-11.4-14.4c-6.7-1.6-13.8-1.9-20.7-2.4c-8.5-0.6-17-0.3-25.4-1.1
		c-7.2-0.8-14.5-2.3-21.5-4.2c-4-1.1-7.1-3.6-7.1-8.9c0.2-52.8,0.1-105.6,0.1-158.4c0-1.3-0.1-2.5-0.2-3.8
		c-9.3,2.2-9.3,2.2-9.3,10.9c0,49.8-0.1,99.6,0.1,149.4c0,4.7-1.1,8.1-5,11.1c-2.6,2-4,5.4-6,8.2c3.2,1.4,6.4,3.7,9.8,3.9
		c14.8,1,29.6,1.2,44.4,2.3c8.4,0.6,17,1.5,25,4c9.7,3.1,11.7,14.2,4.1,21.2c-3.3,3-7.8,5.1-12.1,6.5c-6.8,2.2-13.9,3.2-20.8,5.3
		c-3.1,0.9-6.2,2.6-8.5,4.8c-2.4,2.2-2.5,5.4,1.4,6.5c10.6,3,21.3,1.5,32.4,1.1c-3.5-7.3-3-11,3.2-14.3c4.7-2.5,10.2-3.7,15.4-5
		c3.4-0.8,6.7,0.3,6.9,4.4c0.2,3.9-3,4.4-6.2,4.9c-3.5,0.5-7,1.7-10.5,2.6c0.2,0.6,0.3,1.2,0.5,1.8
		C460.2,481.3,473.7,474.2,488.6,468.8z M208.5,466.7c3.7,1.5,6.8,3,10.1,4.2c33.6,12.3,68.7,16.6,104.1,19.3
		c10.3,0.8,27.4-9,31.5-20.6c2.3-6.3,1.9-10.7-3.5-14.7c-5-3.7-10.6-7.1-16.4-9.1c-27.2-9.4-55-10.4-83.1-4.3
		c-11.8,2.5-23.1,6.5-33.1,13.4C213.9,457.7,210,460.8,208.5,466.7z"/>
	<path class="st0" d="M515.2,463.8c-1.6,16.5-5.4,31.7-11.6,46.4c-16.2,38.2-44.8,62.9-84.2,74.5c-45.3,13.4-91.2,13.6-136.4,0.1
		c-52.7-15.7-83.2-52.1-94.1-105.5c-1-4.9-1.6-9.8-2.4-14.7c0.8-0.1,1.2-0.3,1.4-0.1c22.7,17,49.4,23.5,76.5,28.3
		c61,10.8,122,10.3,182.7-1.9c18.9-3.8,37.5-9,54.5-18.5C506.1,469.9,510.2,467,515.2,463.8z"/>
	<path class="st0" d="M488.6,468.8c-14.9,5.4-28.4,12.5-44,8.1c-0.2-0.6-0.3-1.2-0.5-1.8c3.5-0.9,6.9-2.1,10.5-2.6
		c3.2-0.5,6.4-1,6.2-4.9c-0.2-4.1-3.5-5.2-6.9-4.4c-5.3,1.3-10.8,2.4-15.4,5c-6.2,3.4-6.7,7-3.2,14.3c-11.1,0.4-21.8,1.9-32.4-1.1
		c-4-1.1-3.8-4.3-1.4-6.5c2.3-2.2,5.4-3.9,8.5-4.8c6.8-2,14-3.1,20.8-5.3c4.3-1.4,8.8-3.5,12.1-6.5c7.6-6.9,5.6-18.1-4.1-21.2
		c-8-2.5-16.6-3.3-25-4c-14.8-1.1-29.6-1.2-44.4-2.3c-3.3-0.2-6.5-2.6-9.8-3.9c2-2.8,3.4-6.2,6-8.2c3.9-3,5-6.4,5-11.1
		c-0.1-49.8-0.1-99.6-0.1-149.4c0-8.7,0-8.7,9.3-10.9c0.1,1.3,0.2,2.6,0.2,3.8c0,52.8,0,105.6-0.1,158.4c0,5.3,3.1,7.8,7.1,8.9
		c7,1.9,14.3,3.4,21.5,4.2c8.4,0.9,17,0.6,25.4,1.1c6.9,0.5,14,0.8,20.7,2.4c7.7,1.8,11.1,6.8,11.4,14.4
		c0.9,18.8,2.2,20.5,20.2,27.1C486.7,467.9,487.1,468.1,488.6,468.8z"/>
	<path class="st0" d="M208.5,466.7c1.4-5.9,5.4-9,9.5-11.8c10-6.9,21.3-10.8,33.1-13.4c28.1-6.1,55.9-5.1,83.1,4.3
		c5.8,2,11.4,5.4,16.4,9.1c5.4,4,5.8,8.4,3.5,14.7c-4.1,11.6-21.2,21.4-31.5,20.6c-35.4-2.7-70.5-7.1-104.1-19.3
		C215.4,469.7,212.2,468.3,208.5,466.7z M297.5,483.9c8.6,0,16.2-1.6,22.8-6.2c10.8-7.6,10.9-20,0.2-27.9
		c-11.7-8.6-33.2-8.4-44.7,0.5c-9.9,7.6-9.9,19.3,0.2,26.9C282.6,482,290.1,483.6,297.5,483.9z"/>
	<path d="M297.5,483.9c-7.4-0.2-14.9-1.9-21.4-6.8c-10.1-7.5-10.2-19.3-0.2-26.9c11.5-8.8,33-9.1,44.7-0.5
		c10.6,7.8,10.6,20.3-0.2,27.9C313.7,482.3,306.1,483.9,297.5,483.9z M298.4,451.3c-6,2.3-12,3.8-17.1,6.8
		c-4.9,2.8-4.6,7.4-0.3,11.1c8,6.9,27,7,35.1,0.2c4.5-3.8,4.8-8.5-0.3-11.4C310.6,455.1,304.6,453.6,298.4,451.3z"/>
	<path class="st0" d="M298.4,451.3c6.2,2.3,12.2,3.8,17.4,6.7c5.1,2.9,4.8,7.6,0.3,11.4c-8.1,6.8-27.1,6.7-35.1-0.2
		c-4.2-3.7-4.5-8.3,0.3-11.1C286.4,455.1,292.4,453.6,298.4,451.3z"/>
</g>
</svg>
